<svg width="36" height="36" viewBox="0 0 36 36" fill="none" xmlns="http://www.w3.org/2000/svg">
<path d="M35.7068 9.98392C35.6036 9.83737 35.4667 9.71775 35.3077 9.63515C35.1486 9.55254 34.972 9.50936 34.7928 9.50924H10.9169L9.1096 3.27674C8.40085 0.822555 6.71669 0.557617 6.02594 0.557617H1.207C0.589344 0.557617 0.0898438 1.05768 0.0898438 1.67474C0.0898438 2.2918 0.589906 2.79183 1.20697 2.79183H6.02534C6.17778 2.79183 6.64297 2.79183 6.96026 3.88814L13.1776 26.7375C13.3126 27.2195 13.7519 27.5525 14.253 27.5525H29.4394C29.9108 27.5525 30.3315 27.2572 30.4908 26.8134L35.8435 11.0043C35.9667 10.6617 35.9155 10.2804 35.7068 9.98392H35.7068ZM28.6532 25.3189H15.101L11.5448 11.7441H33.2045L28.6532 25.3189ZM26.4376 29.8166C24.884 29.8166 23.6251 31.0755 23.6251 32.6291C23.6251 34.1827 24.884 35.4416 26.4376 35.4416C27.9912 35.4416 29.2501 34.1827 29.2501 32.6291C29.2501 31.0755 27.9912 29.8166 26.4376 29.8166ZM16.3126 29.8166C14.759 29.8166 13.5001 31.0755 13.5001 32.6291C13.5001 34.1827 14.759 35.4416 16.3126 35.4416C17.8662 35.4416 19.1251 34.1827 19.1251 32.6291C19.1251 31.0755 17.8662 29.8166 16.3126 29.8166Z" fill="#171717"/>
</svg>
