<svg width="20" height="20" viewBox="0 0 20 20" fill="none" xmlns="http://www.w3.org/2000/svg">
<path d="M0.563263 3.52418C0.254143 3.18567 0.0858556 2.73794 0.0938548 2.27532C0.101854 1.8127 0.285515 1.3713 0.606146 1.04413C0.926776 0.716956 1.35934 0.529546 1.81271 0.521384C2.26608 0.513222 2.70485 0.684943 3.0366 1.00037L10.6199 8.73847C10.9476 9.07329 11.1317 9.52716 11.1317 10.0004C11.1317 10.4736 10.9476 10.9275 10.6199 11.2623L3.0366 19.0004C2.70485 19.3158 2.26608 19.4875 1.81271 19.4794C1.35934 19.4712 0.926776 19.2838 0.606146 18.9566C0.285515 18.6294 0.101854 18.188 0.0938548 17.7254C0.0858556 17.2628 0.254143 16.8151 0.563263 16.4766L6.90993 10.0004L0.563263 3.52418ZM17.5499 19.5242C18.0141 19.5242 18.4592 19.336 18.7874 19.0012C19.1156 18.6663 19.2999 18.2121 19.2999 17.7385V2.26228C19.2999 1.78868 19.1156 1.33447 18.7874 0.999586C18.4592 0.664699 18.0141 0.476562 17.5499 0.476562C17.0858 0.476562 16.6407 0.664699 16.3125 0.999586C15.9843 1.33447 15.7999 1.78868 15.7999 2.26228V17.7385C15.7999 18.7242 16.5839 19.5242 17.5499 19.5242Z" fill="#171717"/>
</svg>
