<svg width="60" height="60" viewBox="0 0 60 60" fill="none" xmlns="http://www.w3.org/2000/svg">
<g clip-path="url(#clip0_82_11784)">
<path d="M30.0005 0C20.1899 0 12.1499 8.016 12.1499 17.7996C12.1499 21.5904 13.3607 25.1136 15.4097 28.0092L27.8219 49.467C29.5601 51.738 30.7157 51.3066 32.1611 49.347L45.8519 26.049C46.1279 25.5486 46.3451 25.0158 46.5341 24.4716C47.4029 22.3545 47.8496 20.088 47.8493 17.7996C47.8499 8.016 39.8123 0 30.0005 0ZM30.0005 8.34C35.2841 8.34 39.4853 12.5316 39.4853 17.7996C39.4853 23.0676 35.2841 27.2574 30.0005 27.2574C24.7175 27.2574 20.5145 23.0682 20.5145 17.7996C20.5145 12.5316 24.7175 8.3406 30.0005 8.3406" fill="#0D5DD6"/>
<path d="M41.3477 29.3447L41.3189 29.4203C41.3279 29.3975 41.3351 29.3741 41.3441 29.3513L41.3477 29.3447ZM38.3087 44.0123L37.4789 45.0383C38.6009 45.1739 39.6869 45.3329 40.7039 45.5255L37.4165 46.4993L41.8043 47.6663L45.0749 46.6349C47.0837 47.3087 49.8653 48.1325 50.7869 49.0691H44.2289L44.8805 50.9747H51.6857C51.6653 52.0487 49.7453 52.9211 47.9117 53.6279L43.2611 52.6223L38.8793 54.1925L43.5593 55.2605C40.8269 56.0045 36.2393 56.4569 32.4413 56.6651L32.2817 54.4811H27.7181L27.5579 56.6651C23.7599 56.4569 19.1729 56.0051 16.4399 55.2611L21.1205 54.1925L16.7387 52.6223L12.0875 53.6279C10.2803 53.0789 8.33455 52.0487 8.31415 50.9747H15.1199L15.7715 49.0691H9.21355C10.1351 48.1325 12.9167 47.3087 14.9255 46.6349L18.1961 47.6663L22.5839 46.4993L19.2965 45.5255C20.3582 45.3293 21.426 45.1678 22.4981 45.0413L21.6803 44.0135C12.8093 44.9357 5.43655 46.8995 3.50335 50.0009C0.419945 54.9437 11.7947 59.9159 29.6219 59.9933C29.8871 60.0065 30.1487 59.9969 30.3959 59.9933C48.2129 59.9117 59.5775 54.9413 56.4965 50.0009C54.5621 46.8983 47.1851 44.9339 38.3087 44.0123Z" fill="#0D5DD6"/>
</g>
<defs>
<clipPath id="clip0_82_11784">
<rect width="60" height="60" fill="white"/>
</clipPath>
</defs>
</svg>
