<svg width="12" height="19" viewBox="0 0 12 19" fill="none" xmlns="http://www.w3.org/2000/svg">
<path d="M0.469681 3.00308C0.160561 2.66456 -0.00772653 2.21683 0.000272643 1.75421C0.00827182 1.29159 0.191933 0.850198 0.512564 0.523024C0.833194 0.19585 1.26576 0.00844063 1.71913 0.000278207C2.1725 -0.00788421 2.61127 0.163838 2.94301 0.479266L10.5263 8.21736C10.8541 8.55218 11.0381 9.00605 11.0381 9.47927C11.0381 9.95248 10.8541 10.4063 10.5263 10.7412L2.94301 18.4793C2.61127 18.7947 2.1725 18.9664 1.71913 18.9583C1.26576 18.9501 0.833194 18.7627 0.512564 18.4355C0.191933 18.1083 0.00827182 17.6669 0.000272643 17.2043C-0.00772653 16.7417 0.160561 16.294 0.469681 15.9555L6.81635 9.47927L0.469681 3.00308Z" fill="#171717"/>
</svg>
