<svg width="25" height="24" viewBox="0 0 25 24" fill="none" xmlns="http://www.w3.org/2000/svg">
<g clip-path="url(#clip0_82_11133)">
<path d="M23.1333 24L14.7333 15.6C14.0667 16.1333 13.3 16.5556 12.4333 16.8667C11.5667 17.1778 10.6444 17.3333 9.66667 17.3333C7.24444 17.3333 5.19467 16.4942 3.51733 14.816C1.84 13.1378 1.00089 11.088 1 8.66667C1 6.24444 1.83911 4.19467 3.51733 2.51733C5.19556 0.84 7.24533 0.000888889 9.66667 0C12.0889 0 14.1391 0.839111 15.8173 2.51733C17.4956 4.19556 18.3342 6.24533 18.3333 8.66667C18.3333 9.64444 18.1778 10.5667 17.8667 11.4333C17.5556 12.3 17.1333 13.0667 16.6 13.7333L25 22.1333L23.1333 24ZM9.66667 14.6667C11.3333 14.6667 12.7502 14.0836 13.9173 12.9173C15.0844 11.7511 15.6676 10.3342 15.6667 8.66667C15.6667 7 15.0836 5.58356 13.9173 4.41733C12.7511 3.25111 11.3342 2.66756 9.66667 2.66667C8 2.66667 6.58356 3.25022 5.41733 4.41733C4.25111 5.58444 3.66756 7.00089 3.66667 8.66667C3.66667 10.3333 4.25022 11.7502 5.41733 12.9173C6.58444 14.0844 8.00089 14.6676 9.66667 14.6667Z" fill="white"/>
</g>
<defs>
<clipPath id="clip0_82_11133">
<rect width="24" height="24" fill="white" transform="translate(0.5)"/>
</clipPath>
</defs>
</svg>
