<svg width="22" height="24" viewBox="0 0 22 24" fill="none" xmlns="http://www.w3.org/2000/svg">
<path fill-rule="evenodd" clip-rule="evenodd" d="M0 1.90092C0 1.39677 0.193154 0.91326 0.536971 0.556768C0.880788 0.200275 1.3471 0 1.83333 0H20.1667C20.6529 0 21.1192 0.200275 21.463 0.556768C21.8068 0.91326 22 1.39677 22 1.90092V4.54447C21.9999 5.21663 21.7422 5.8612 21.2838 6.33641L14.6667 13.1975V22.6058C14.6667 22.8434 14.6081 23.0771 14.4966 23.2847C14.385 23.4923 14.224 23.6668 14.0291 23.7918C13.8341 23.9167 13.6116 23.9879 13.3826 23.9986C13.1537 24.0093 12.9259 23.9591 12.7209 23.8528L8.17789 21.4982C7.92412 21.3666 7.71069 21.1644 7.56153 20.9141C7.41236 20.6639 7.33334 20.3755 7.33333 20.0814V13.1975L0.716222 6.33641C0.257768 5.8612 0.000138447 5.21663 0 4.54447V1.90092ZM2.44444 2.53456V4.54447L9.24 11.5906C9.41044 11.7671 9.54566 11.9767 9.63793 12.2074C9.7302 12.4381 9.77773 12.6854 9.77778 12.9352V19.4933L12.2222 20.7606V12.9352C12.2222 12.4308 12.4153 11.9467 12.76 11.5918L19.5556 4.54321V2.53456H2.44444Z" fill="white"/>
</svg>
