<svg width="20" height="30" viewBox="0 0 20 30" fill="none" xmlns="http://www.w3.org/2000/svg">
<path d="M20 28.4991V1.49833C19.9992 1.22496 19.9321 0.957 19.8058 0.723293C19.6795 0.489586 19.4989 0.298983 19.2833 0.171999C19.0677 0.0450144 18.8254 -0.0135412 18.5824 0.00263393C18.3394 0.018809 18.105 0.1091 17.9043 0.263794L0.539963 13.7642C-0.179988 14.3237 -0.179988 15.6707 0.539963 16.2317L17.9043 29.7321C18.1045 29.8884 18.3391 29.98 18.5825 29.9971C18.8259 30.0141 19.0688 29.956 19.2849 29.8289C19.5009 29.7018 19.6818 29.5106 19.8078 29.2762C19.9339 29.0417 20.0004 28.773 20 28.4991Z" fill="white"/>
</svg>
